<?xml version="1.0" encoding="utf-8"?>
<!-- Generator: Adobe Illustrator 22.0.0, SVG Export Plug-In . SVG Version: 6.00 Build 0)  -->
<svg version="1.1" id="图层_1" xmlns="http://www.w3.org/2000/svg" xmlns:xlink="http://www.w3.org/1999/xlink" x="0px" y="0px"
	 viewBox="0 0 750 1334" style="enable-background:new 0 0 750 1334;" xml:space="preserve">
<style type="text/css">
	.st0{fill:#432918;}
	.st1{fill:#D17F0C;}
	.st2{fill:#F0DDB3;}
	.st3{fill:#F9970E;}
	.st4{fill:#594A42;}
	.st5{fill:#8E4208;}
</style>
<g>
	<g>
		<path class="st0" d="M443.5,309.4c-1,6,6,16.9,9,17.9l-3.3,14c1.8,0.6,3.6,1.4,5.4,2.1c0,0,4.3-8.2,5.3-14.7c0,0,11.4,2.5,15.9-9
			c4.5-11.4-4-19.9-12.9-22.4C454,295,444.5,303.4,443.5,309.4z"/>
	</g>
	<g>
		<path class="st0" d="M313,341.6c-6.3,6.9-8.9,18.5,1,25.8c9.9,7.3,18.2-0.9,18.2-0.9c4.3,4.9,12.3,9.6,12.3,9.6l0.3,0.2
			c1.1-1.6,2.3-3.2,3.4-4.7l-0.2-0.2l-10.3-10.1c2-2.4,2.1-15.4-2-19.9C331.7,336.8,319.2,334.7,313,341.6z"/>
	</g>
	<g>
		<path class="st0" d="M185.2,772.2c-2.9,11.1,2.8,22.3,3.5,29.6c10.4-4.8,18.9-16.7,19.7-24.7c0.7-7.6-3.7-13.9-3.7-13.9
			c3-35.3,37.3-49.8,37.3-49.8c1.8-3.6,3.7-6.8,6-9.7c-47.8,3.3-52.6,57.4-52.6,57.4S187.3,764.5,185.2,772.2z"/>
	</g>
	<g>
		<path class="st1" d="M361,801.8c0,0-2.6,43,2.9,45c5.5,2,23.6,0,23.6,0l0.4,0c-1.4-18.4,1.6-58.9,1.6-58.9l-0.2-0.3
			C383.5,792.7,374.6,798.2,361,801.8z"/>
	</g>
	<g>
		<path class="st1" d="M274.6,794.9c0.2,3.6,1.4,32.5-0.2,49.4c3.6,1,17.8,3.5,20.3,0c2.5-3.5,3.5-41.1,3.5-41.1v0
			C288,801.1,280.4,798.1,274.6,794.9z"/>
	</g>
	<g>
		<path class="st2" d="M482.3,359.9c6.6,5.2,13.1,11.3,19.5,18.5c37.3-13.3,45.8-83.9,32.3-87.9
			C534.1,290.5,501.1,305.4,482.3,359.9z"/>
	</g>
	<g>
		<path class="st2" d="M249,373.6c-9.2,10.5,35.6,65.8,74.2,57.1l0.7,0.1c1.2-9.3,3.4-17.9,6.3-26l-0.4-0.1
			C284.9,368.6,249,373.6,249,373.6z"/>
	</g>
	<g>
		<path class="st3" d="M274.4,844.3c1.6-16.9,0.4-45.8,0.2-49.4c5.7,3.2,13.4,6.2,23.5,8.3c7.9,1.6,17.4,2.6,28.6,2.6
			c13.8,0,25.1-1.5,34.2-3.9c13.6-3.6,22.6-9,28.3-14.2l0.2,0.3c0,0-3,40.6-1.6,58.9c0.3,4,0.8,7,1.6,8.2c4.5,6.7,30.6,6.7,38.1,0
			c7.5-6.7,8.9-76.9,14.2-146.3c5.2-69.4,1.6-125.4,1.6-125.4c-23.8,4.2-43.3,0.7-59.4-8.4c-0.1,1.3-5.1,63.8-15.4,75.6
			c-10.4,11.9-81.1,3.3-120.6,53.3c-2.2,2.8-4.2,6.1-6,9.7c-21.1,43.1-6.7,133.1-3.2,139.3c3.7,6.7,25.4,6,32.1,3.7
			C272.7,855.9,273.8,851,274.4,844.3z"/>
	</g>
	<g>
		<path class="st3" d="M249,373.6c0,0,35.8-5,80.8,31.1l0.4,0.1c1.8-5,3.9-9.8,6.1-14.3l-0.4-0.2C336,390.3,264.8,355.6,249,373.6z"
			/>
	</g>
	<g>
		<path class="st3" d="M324,430.8c-2,15.1-1.4,31.7,2.9,49.5c9.8,40.7,26.4,75,53.6,92.4c-20.3-20.3-28.2-49.1-18.5-78.2
			c9.7-29.1,73.9-68.7,128.4-56c53.8,12.5,50.4,71.1,50.3,72.7c11.3-34.3,1.3-74.9-22.6-111.5c-5.2-8-10.6-15-16.2-21.3
			c-6.4-7.2-12.9-13.3-19.5-18.5c-4.3-3.3-8.5-6.3-12.8-8.9c-4.9-3-9.9-5.5-14.8-7.5c-1.8-0.8-3.6-1.5-5.4-2.1
			c-23.7-8.5-46.4-7-63.4-0.6c-11.5,4.3-25.7,15-37.6,30.8c-1.2,1.5-2.3,3.1-3.4,4.7c-3,4.4-5.8,9.2-8.4,14.2
			c-2.3,4.5-4.4,9.3-6.1,14.3C327.4,412.9,325.2,421.6,324,430.8z"/>
	</g>
	<g>
		<path class="st2" d="M384,574.9c16.1,9.1,35.6,12.6,59.4,8.4c9-1.6,18.7-4.3,28.9-8.2c37.8-14.3,59.4-37.2,68.2-63.9c0,0,0,0,0,0
			c0.1-1.6,3.5-60.2-50.3-72.7c-54.5-12.7-118.7,26.9-128.4,56c-9.7,29.1-1.8,57.9,18.5,78.2C381.6,573.5,382.8,574.2,384,574.9z"/>
	</g>
	<g>
		<path class="st3" d="M469.4,351c4.3,2.6,8.6,5.5,12.8,8.9c18.8-54.5,51.8-69.4,51.8-69.4C511.1,283.7,469.4,351,469.4,351z"/>
	</g>
	<g>
		<g>
			<path class="st4" d="M498.5,463.6c0.9,2.2,3.4,3.2,5.5,2.3c2.2-0.9,3.2-3.4,2.3-5.5c-0.9-2.2-3.4-3.2-5.5-2.3
				C498.7,458.9,497.6,461.4,498.5,463.6z"/>
		</g>
		<g>
			<path class="st4" d="M369.2,522.6c0.9,2.2,3.4,3.2,5.5,2.3c2.2-0.9,3.2-3.3,2.3-5.5c-0.9-2.2-3.4-3.2-5.5-2.3
				C369.4,517.9,368.3,520.4,369.2,522.6z"/>
		</g>
	</g>
	<g>
		<g>
			<path class="st4" d="M438.7,423.5c1.7,4.5,6,7.1,9.5,5.7c3.5-1.4,5-6.1,3.3-10.6c-1.7-4.5-6-7.1-9.5-5.7
				C438.4,414.2,437,419,438.7,423.5z"/>
		</g>
		<g>
			<path class="st4" d="M380.7,444.7c1.7,4.5,6,7.1,9.5,5.7c3.5-1.4,5-6.1,3.3-10.6c-1.7-4.5-6-7.1-9.5-5.7
				C380.4,435.5,379,440.2,380.7,444.7z"/>
		</g>
	</g>
	<g>
		<path class="st5" d="M330.3,404.8c1.8-5,3.9-9.8,6.1-14.3c2.6-5.1,5.4-9.8,8.4-14.2c1.1-1.6,2.3-3.2,3.4-4.7
			c9.6-12.8,20.7-22.2,30.7-27.6c12.4,11.8,23.8,22.5,19.4,43.9c-4.5,22.3-36.8,30.4-47.6,49.3c-6.3,11.2-7.5,18.2-22.6,20.7
			c-1.7,0.3-3.3,0.4-4.9,0.4c-0.8-9.6-0.5-18.8,0.7-27.5C325.2,421.6,327.4,412.9,330.3,404.8z"/>
	</g>
	<g>
		<path class="st5" d="M368.6,650.5c6.3-7.2,10.6-32.9,13-52.4c15.4,3.5,24,10.4,18.1,29.2c-3.8,12-14.1,29.9-28.3,29.1
			c-3.3-0.2-6.2-1.1-8.5-2.5C365.5,652.9,367.4,651.8,368.6,650.5z"/>
	</g>
	<g>
		<path class="st5" d="M347,657.5c1.1,23.4,13.5,53.7-18.3,62.2c-10.2,2.7-23.9,3.1-34.1,0.9c-3.9-0.8-6.9-2.9-11-3.2
			c-4.6-0.4-9.6,2.4-14.2,1.3c-8.5-2-13.9-11.5-16-21.1C281.5,667.4,321.9,662,347,657.5z"/>
	</g>
	<g>
		<path class="st5" d="M398.9,689.5c21.8,2.2,9.2,45.3-13.2,30c-13.9-9.5,5.1-38.3,15.1-30"/>
	</g>
	<g>
		<path class="st5" d="M284.9,739.6c3.3-1.7,7.3-3.5,9.3-1.1c-0.1,4.4-0.3,8.8,0.9,13.1c-4.3,2-9.3,2.4-13.9,1.9
			C279.8,748.2,282,743.6,284.9,739.6z"/>
	</g>
	<g>
		<path class="st5" d="M418.7,632.9c7.9,6.6,1.7,19.3-8.4,16.9C396,646.4,410.6,634.4,418.7,632.9z"/>
	</g>
	<g>
		<path class="st5" d="M363,675.2c4.3-1.3,8.1-2.8,8.3,1.7c0.5,2.1,0,5.3-0.1,7.4C364.2,687.8,359.7,681.9,363,675.2z"/>
	</g>
	<g>
		<path class="st4" d="M439.1,559.7c-5.4,0-11.1-0.5-17.3-1.5c-1.5-0.2-2.5-1.7-2.3-3.2c0.2-1.5,1.7-2.6,3.2-2.3
			c56.9,9.4,77-31.7,77.2-32.2c0.6-1.4,2.3-2,3.7-1.3c1.4,0.7,2,2.3,1.3,3.7C504.7,523.4,487,559.7,439.1,559.7z"/>
	</g>
</g>
</svg>
