<?xml version="1.0" encoding="utf-8"?>
<!-- Generator: Adobe Illustrator 22.0.0, SVG Export Plug-In . SVG Version: 6.00 Build 0)  -->
<svg version="1.1" id="图层_1" xmlns="http://www.w3.org/2000/svg" xmlns:xlink="http://www.w3.org/1999/xlink" x="0px" y="0px"
	 viewBox="0 0 386.4 99.3" style="enable-background:new 0 0 386.4 99.3;" xml:space="preserve">
<style type="text/css">
	.st0{fill:#F3AD38;}
	.st1{fill:#B57EE6;}
	.st2{fill:#6DABF5;}
	.st3{fill:#F16161;}
	.st4{fill:#A2E05E;}
</style>
<path class="st0" d="M56,35.7c1,0.5,2,1.1,2.9,1.7l0.6,2.3l-1.2,2.1l-2.1,1l-14.5-1.1L41,42.1l5.7,4L62.1,54l1.5,1.9
	c0.1,2-0.6,3.3-2,4c-5.5-1-10.5-3.2-14.9-6.7L39,47c-0.5,4.6-0.5,9.6-0.2,14.8l-2.4,18.9l-2,1.5c-1.7,0.4-2.9-0.1-3.9-1.4l-0.8-2.3
	c1.8-11.6,2.8-23.2,3.1-34.8c-2.7,5-5.9,9.5-9.5,13.6c-2.4,2.2-4.9,3.7-7.6,4.6c-2.3,0.5-3.9-0.4-4.8-2.4c-0.5-1.2-0.1-2.3,0.9-3.4
	c1.8-0.4,3.6-1.3,5.4-2.6l4.6-4.3c2.2-2.5,4.2-5.2,6.1-8.1c-6.7-0.4-13-2.1-18.8-5.1c-1.2-1.2-1.1-2.3,0.4-3.3l1.8-0.6L27,34
	C36.5,34.5,46.2,35,56,35.7z"/>
<path class="st1" d="M88.6,36.7c1.1-0.2,2,0.1,2.9,0.8c1.7,3,2.9,6.2,3.6,9.7c3.8-0.2,7.7-0.9,11.7-2.1l1.8,1
	c0.2,1.2,0.1,2.2-0.3,3.1c-3.3,2-6.7,3.2-10.2,3.8c2.8,2.7,5.4,5.5,7.9,8.4c0.3,1.6-0.1,2.8-1.3,3.6l-1.8,0.4l-1.9-1.3l-5.3-6.8
	l-0.7,0c-0.8,4.2-2.3,7.9-4.5,11.2c-2,2.3-4.4,3.1-7.2,2.3c-1.4-0.7-1.8-1.7-1.4-3.2l3.2-3l2.2-3.6c1.1-2.4,1.5-4.7,1.2-6.9
	l-8.2,1.7L78.5,55c-0.9-0.7-1-1.6-0.3-2.8l3-1.7c2.9-0.4,5.8-1.2,8.5-2.4c0-3.5-0.5-6.9-1.4-10.4L88.6,36.7z M81.2,23.5
	c0.7,0,1.4,0.2,2,0.7c1.2,2.3,2.2,4.7,2.7,7.2l9.4-1.3c2-0.4,3.9-0.2,5.7,0.4c0.9,1.6,0.8,3-0.5,4.2c-5,0.8-9.9,1.1-14.7,1.1
	c-0.7,2.8-1.6,5.6-2.5,8.2c-2,2.5-3.9,2.7-5.9,0.8c0.2-3.8,1.1-7.8,2.6-12c-0.5-2.8-0.5-5.7,0-8.6L81.2,23.5z M120.8,30.9
	c3.5,0.1,6.9,0.9,10.2,2.4l3.4,2.6c2,3.3,2.5,6.9,1.4,10.7c-1.3,3.3-3.3,6-5.8,8.2l-3.9,2.4c-3.4,0.9-6.7,0.5-9.7-1.3
	c-2.1-1.6-3.6-3.6-4.3-6.2c-0.9-5.6,0.1-10.8,3-15.6C116.5,32.7,118.4,31.6,120.8,30.9z M123.3,37.2c-2.1,0.2-3.9,1-5.4,2.4
	c-0.5,3.1-0.3,6.1,0.4,9l1.8,2.3c1.6,0.8,3.4,0.8,5.3,0l3.8-3.7c1.1-1.8,1.6-3.8,1.6-6l-1.2-1.7l-3.4-1.8L123.3,37.2z"/>
<path class="st2" d="M159.5,40.2c1.1,1.5,1.3,3.1,0.7,4.8l-3.5,10.1c3.8,3.5,8,6.5,12.5,8.8c1.7,1.6,2.2,3.4,1.5,5.3
	c-1,1.2-2.2,1.6-3.7,1.3c-4.7-2.8-8.9-5.9-12.8-9.2c-2.3,4.4-4.2,8.9-5.7,13.6l-1.7,1.8h-3.1c-2.5-2.8-2.5-6.1,0.2-9.9L156.2,41
	l1.8-1.3L159.5,40.2z M193.2,38.2c1.3-0.1,2.5,0.2,3.5,1.1l0.2,1.7c-2.9,3.7-5.3,7.5-7.2,11.5l2.4,1.5c3.9,4.3,8.3,8,13.2,11.2
	l2,2.9c0.1,1.5-0.2,2.7-1.1,3.7c-1.7,0.9-3.3,0.9-4.9-0.2l-6.8-5.3l-7.3-7.9h-1.1l-5,9.5c-0.7,3.2-1.9,6.1-3.5,8.6
	c-1.3,0.9-2.7,1-4,0.4c-2.8-3.1-2.8-6.7,0-11c4.4-9.4,10-18.1,16.9-26.2L193.2,38.2z"/>
<path class="st3" d="M273.6,17.1c0.4,1.3,0,2.5-1.1,3.6l-6,6l-6.5,4.2l21.9,3.8l2.5,1c1.5,1.7,1.8,3.5,0.8,5.3
	c-13.9-0.5-27.8-2.1-41.8-5c-8.9-0.7-17.3-2.4-25-5.1c-0.3-0.9-0.1-1.8,0.6-2.5c3-0.7,6.1-1,9.3-0.7l20.8,2.2
	c-1.8-3.7-3.6-7.8-5.4-12.2c-0.4-1.4,0-2.6,1-3.7l2.3-0.2l2,1.4c1.9,3.1,4,6.1,6.2,9l12.6-6.2l4.3-1.1L273.6,17.1z M247.3,44.4
	c2.7,0.2,5,1.1,6.9,2.9c2.1,5.4,2.8,11,2.2,16.9c0.2,6.6-1.2,12.5-4,17.8c-3.7,2.2-7,1.6-9.9-2c-1.5-1.9-2.2-4-2.3-6.3
	c2.5,1.1,5.1,2,7.8,2.6l1.8-9.1l-0.2-5.6l-10.6-0.8l-2.1,0.4c-0.9,1.2-1.2,2.3-0.8,3.4l6.4-0.5c2.2,0,4.2,0.7,5.8,2.1
	c0.3,0.9,0.1,1.8-0.8,2.5l-2.6,1.1c-4,0-7.8,0.4-11.2,1.3c-1,3.3-2,6.5-2.9,9.6l-2.1,1.5c-1.4,0.4-2.5,0-3.4-1
	c-1.3-1.2-1.6-2.8-0.9-4.6c2.1-11.9,6.3-22.8,12.6-32.5c1.4-0.1,2.5,0.6,3.4,2C242.7,45.3,244.9,44.8,247.3,44.4z M249.2,51
	c-2.7-0.6-5.2-0.2-7.4,1.2c-1.4,1-2.3,2.2-2.5,3.6c3.1-0.2,6.4,0,9.6,0.6l0.8-0.3l0.2-3.8L249.2,51z M267.4,51.5
	c0.7,0.2,1.4,0.5,2.1,0.7c1.3,4.4,1.9,8.9,2.1,13.5c-0.4,1.6-1.2,2.6-2.5,3.1c-1.2,0.3-2.3,0-3.2-0.7c-1.5-2.5-2-5.4-1.4-8.7
	c-0.2-2.4,0.2-4.7,1.3-6.9L267.4,51.5z M285,49c0.8,0.3,1.7,0.6,2.5,1.1c2.2,8.5,2.6,17.1,1.2,25.8c-0.6,3.9-2.5,6.8-5.7,8.8
	c-3.7,1.8-7.2,1.5-10.3-0.9l-1.8-2.9c-0.5-1.4-0.2-2.6,1-3.5c2.3,1,4.9,1.4,7.6,1.2c1.4-1.3,2.3-2.9,2.6-4.8
	c0.6-5.6,0.7-11.2,0.5-16.9C282.4,53.6,283.2,51,285,49z"/>
<path class="st4" d="M320.4,31.5c1.3,1.2,2.1,2.8,2.3,4.6c0.1,3.2,0.6,6.3,1.5,9.3c1.5-1,3.3-1.4,5.2-1.3l0.5,1.4l-0.9,2.3l-4.3,4.7
	c0.3,6.6,1.3,13,2.8,19.1l-0.4,2.2c-1.9,2.1-3.9,2.1-5.8,0.2l-1.4-4.1l-1.6-14.4c-3,0.7-5.8,0.3-8.3-1.2c-1.6-1.4-2.3-3.1-2.1-5.1
	c-0.3-2.8,0.2-5.3,1.7-7.6l1.7-0.3l1.7,1.4c0,2.3,0.5,4.6,1.4,6.7c1.3,0.4,2.6,0.1,3.8-0.9l-0.2-13c-0.1-1.5,0.4-2.8,1.4-3.9
	L320.4,31.5z M354.1,37.8c4.1-0.3,8.3-0.3,12.6-0.2c3.1,0.9,5.9,2.4,8.4,4.4c1.7,2.1,2.7,4.5,2.9,7.1c-0.4,2.5-1.5,4.5-3.5,6
	c-8.4,4.7-17.3,6.7-27,5.9c-5.2-0.1-9.9-1.3-14.2-3.6c-1.6-1.4-2.2-3.2-1.9-5.4c0.6-2.6,1.8-4.8,3.7-6.7c2.4-2.4,5.4-4.2,8.8-5.5
	c1.8-0.4,3.6-0.3,5.3,0.3C350.8,39.3,352.4,38.5,354.1,37.8z M349.8,42.1c-4.7,1.5-8.6,4.1-11.6,7.8l-1.1,2.8l0.8,0.7l5.3,1.2
	c0.2-3.3,1-6.6,2.2-9.9l1.3-0.3l1.2,1c0.2,3.5,0.9,6.7,2,9.6l5.3-0.4l1-8.5l-0.2-2.4l-4.4-0.4l-1.5-1.2L349.8,42.1z M352.5,10.8
	c3.7,0,7.2,0.7,10.5,2.1c3.3,3,5.1,6.7,5.4,10.9c-0.4,2.7-1.5,4.9-3.2,6.6c-2.9,2.4-6,4.3-9.3,5.6c-4.8,1.2-9.4,0.8-13.7-1.1
	c-3.6-2.3-4.9-5.5-4-9.6c1-3.7,2.9-7.2,5.6-10.3l3.4-2.6L352.5,10.8z M344.7,25l-0.8,0.8c-0.6,1.8-0.2,3.1,1.2,4
	c3.2,1.3,6.6,1.5,10.2,0.7c2.9-0.9,5.4-2.6,7.6-4.9l-0.1-1.1l-16.5,0.6L344.7,25z M362,64.6l1.8,1.2c1.2,1.5,1.7,3.3,1.5,5.2
	l-2.2,5.5c2.9,0.8,5.9,1.3,9.1,1.6c0.9,0.8,1.3,1.9,1.1,3.2l-1.4,1.6c-4.5,1.4-8.9,1.1-13.1-0.8c-1.8,1.9-3.8,3.5-5.9,4.8
	c-1.7,0.5-3.2,0.2-4.5-1.1l-0.2-2.4l2.5-2.4l2.8-3.3c-1.6-2.1-2.9-4.3-4-6.7c-0.9-0.1-1.6-0.3-2.3-0.7l-0.1-1.3
	c3.1-2.3,6.6-3.7,10.5-4.2L362,64.6z M354.4,15.9l-6.5,1.4l-1.3,2.3l13.8-0.8l0.9-0.5l-3.1-2.2l-2.8,0L354.4,15.9z M355,69.3
	l-0.2,0.6l2.6,2.9l0.9-0.5l1.8-3l-0.5-0.4L355,69.3z M360.5,43.5c0.5,3.3,0.7,6.6,0.5,9.9l0.5,0.9c3-0.4,6.1-1.4,9-2.8l2.1-1.9
	l-0.2-2.2l-1.2-1.4c-1.8-1.5-3.9-2.4-6.3-2.7L360.5,43.5z"/>
</svg>
