<?xml version="1.0" encoding="utf-8"?>
<!-- Generator: Adobe Illustrator 22.0.0, SVG Export Plug-In . SVG Version: 6.00 Build 0)  -->
<svg version="1.1" id="图层_1" xmlns="http://www.w3.org/2000/svg" xmlns:xlink="http://www.w3.org/1999/xlink" x="0px" y="0px"
	 viewBox="0 0 492.9 144.8" style="enable-background:new 0 0 492.9 144.8;" xml:space="preserve">
<style type="text/css">
	.st0{fill:#F3AD38;}
	.st1{fill:#B57EE6;}
	.st2{fill:#6DABF5;}
	.st3{fill:#F16161;}
	.st4{fill:#A2E05E;}
	.st5{fill:#432918;}
	.st6{fill:#D17F0C;}
	.st7{fill:#F0DDB3;}
	.st8{fill:#F9970E;}
	.st9{fill:#594A42;}
	.st10{fill:#8E4208;}
</style>
<path class="st0" d="M162.5,81.2c1,0.5,2,1.1,2.9,1.7l0.6,2.3l-1.2,2.1l-2.1,1l-14.5-1.1l-0.8,0.5l5.7,4l15.4,7.8l1.5,1.9
	c0.1,2-0.6,3.3-2,4c-5.5-1-10.5-3.2-14.9-6.7l-7.7-6.1c-0.5,4.6-0.5,9.6-0.3,14.8l-2.4,18.9l-2,1.5c-1.7,0.4-2.9-0.1-3.9-1.4
	l-0.8-2.3c1.8-11.6,2.8-23.2,3.1-34.8c-2.7,5-5.9,9.5-9.5,13.6c-2.4,2.2-4.9,3.7-7.6,4.6c-2.3,0.5-3.9-0.4-4.8-2.4
	c-0.5-1.2-0.1-2.3,0.9-3.4c1.8-0.4,3.6-1.3,5.4-2.6l4.6-4.3c2.2-2.5,4.2-5.2,6.1-8.1c-6.7-0.4-13-2.1-18.8-5.1
	c-1.2-1.2-1.1-2.3,0.4-3.3l1.8-0.6l15.8,2C143,80,152.7,80.5,162.5,81.2z"/>
<path class="st1" d="M195.1,82.2c1.1-0.2,2,0.1,2.9,0.8c1.7,3,2.9,6.2,3.6,9.7c3.8-0.2,7.7-0.9,11.7-2.1l1.8,1
	c0.2,1.2,0.1,2.2-0.3,3.1c-3.3,2-6.7,3.2-10.2,3.8c2.8,2.7,5.4,5.5,7.9,8.4c0.3,1.6-0.1,2.8-1.3,3.6l-1.8,0.4l-1.9-1.3l-5.3-6.8
	l-0.7,0c-0.8,4.2-2.3,7.9-4.5,11.2c-2,2.3-4.4,3.1-7.2,2.3c-1.4-0.7-1.8-1.7-1.4-3.2l3.2-3l2.2-3.6c1.1-2.4,1.5-4.7,1.2-6.9
	l-8.2,1.7l-1.8-0.8c-0.9-0.7-1-1.6-0.3-2.8l3-1.7c2.9-0.4,5.8-1.2,8.5-2.4c0-3.5-0.5-6.9-1.4-10.4L195.1,82.2z M187.7,69
	c0.7,0,1.4,0.2,2,0.7c1.2,2.3,2.2,4.7,2.7,7.2l9.4-1.3c2-0.4,3.9-0.2,5.7,0.4c0.9,1.6,0.8,3-0.5,4.2c-5,0.8-9.9,1.1-14.7,1.1
	c-0.7,2.8-1.6,5.6-2.5,8.2c-2,2.5-3.9,2.7-5.9,0.8c0.2-3.8,1.1-7.8,2.6-12c-0.5-2.8-0.5-5.7,0-8.6L187.7,69z M227.3,76.4
	c3.5,0.1,6.9,0.9,10.2,2.4l3.4,2.6c2,3.3,2.5,6.9,1.4,10.7c-1.3,3.3-3.3,6-5.8,8.2l-3.9,2.4c-3.4,0.9-6.7,0.5-9.7-1.3
	c-2.1-1.6-3.6-3.6-4.3-6.2c-0.9-5.6,0.1-10.8,3-15.6C223,78.2,224.9,77.1,227.3,76.4z M229.8,82.7c-2.1,0.2-3.9,1-5.4,2.4
	c-0.5,3.1-0.3,6.1,0.4,9l1.8,2.3c1.6,0.8,3.4,0.8,5.3,0l3.8-3.7c1.1-1.8,1.6-3.8,1.6-6l-1.2-1.7l-3.4-1.8L229.8,82.7z"/>
<path class="st2" d="M266,85.7c1.1,1.5,1.3,3.1,0.7,4.8l-3.5,10.1c3.8,3.5,8,6.5,12.5,8.8c1.7,1.6,2.2,3.4,1.5,5.3
	c-1,1.2-2.2,1.6-3.7,1.3c-4.7-2.8-8.9-5.9-12.8-9.2c-2.3,4.4-4.2,8.9-5.7,13.6l-1.7,1.8h-3.1c-2.5-2.8-2.5-6.1,0.2-9.9l12.3-25.8
	l1.8-1.3L266,85.7z M299.7,83.7c1.3-0.1,2.5,0.2,3.5,1.1l0.2,1.7c-2.9,3.7-5.3,7.5-7.2,11.5l2.4,1.5c3.9,4.3,8.3,8,13.2,11.2l2,2.9
	c0.1,1.5-0.2,2.7-1.1,3.7c-1.7,0.9-3.3,0.9-4.9-0.2l-6.8-5.3l-7.3-7.9h-1.1l-5,9.5c-0.7,3.2-1.9,6.1-3.5,8.6c-1.3,0.9-2.7,1-4,0.4
	c-2.8-3.1-2.8-6.7,0-11c4.4-9.4,10-18.1,16.9-26.2L299.7,83.7z"/>
<path class="st3" d="M380.1,62.6c0.4,1.3,0,2.5-1.1,3.6l-6,6l-6.5,4.2l21.9,3.8l2.5,1c1.5,1.7,1.8,3.5,0.8,5.3
	c-13.9-0.5-27.8-2.1-41.8-5c-8.9-0.7-17.3-2.4-25-5.1c-0.3-0.9-0.1-1.8,0.6-2.5c3-0.7,6.1-1,9.3-0.7l20.8,2.2
	c-1.8-3.7-3.6-7.8-5.4-12.2c-0.4-1.4,0-2.6,1-3.7l2.3-0.2l2,1.4c1.9,3.1,4,6.1,6.2,9l12.6-6.2l4.3-1.1L380.1,62.6z M353.8,89.9
	c2.7,0.2,5,1.1,6.9,2.9c2.1,5.4,2.8,11,2.2,16.9c0.2,6.6-1.2,12.5-4,17.8c-3.7,2.2-7,1.6-9.9-2c-1.5-1.9-2.2-4-2.3-6.3
	c2.5,1.1,5.1,2,7.8,2.6l1.8-9.1l-0.2-5.6l-10.6-0.8l-2.1,0.4c-0.9,1.2-1.2,2.3-0.8,3.4l6.4-0.5c2.2,0,4.2,0.7,5.8,2.1
	c0.3,0.9,0.1,1.8-0.8,2.5l-2.6,1.1c-4,0-7.8,0.4-11.2,1.3c-1,3.3-2,6.5-2.9,9.6l-2.1,1.5c-1.4,0.4-2.5,0-3.4-1
	c-1.3-1.2-1.6-2.8-0.9-4.6c2.1-11.9,6.3-22.8,12.6-32.5c1.4-0.1,2.5,0.6,3.4,2C349.2,90.8,351.4,90.3,353.8,89.9z M355.7,96.5
	c-2.7-0.6-5.2-0.2-7.4,1.2c-1.4,1-2.3,2.2-2.5,3.6c3.1-0.2,6.4,0,9.6,0.6l0.8-0.3l0.2-3.8L355.7,96.5z M373.9,97
	c0.7,0.2,1.4,0.5,2.1,0.7c1.3,4.4,1.9,8.9,2.1,13.5c-0.4,1.6-1.2,2.6-2.5,3.1c-1.2,0.3-2.3,0-3.2-0.7c-1.5-2.5-2-5.4-1.4-8.7
	c-0.2-2.4,0.2-4.7,1.3-6.9L373.9,97z M391.5,94.5c0.8,0.3,1.7,0.6,2.5,1.1c2.2,8.5,2.6,17.1,1.2,25.8c-0.6,3.9-2.5,6.8-5.7,8.8
	c-3.7,1.8-7.2,1.5-10.3-0.9l-1.8-2.9c-0.5-1.4-0.2-2.6,1-3.5c2.3,1,4.9,1.4,7.6,1.2c1.4-1.3,2.3-2.9,2.6-4.8
	c0.6-5.6,0.7-11.2,0.5-16.9C388.9,99.1,389.7,96.5,391.5,94.5z"/>
<path class="st4" d="M426.9,77c1.3,1.2,2.1,2.8,2.3,4.6c0.1,3.2,0.6,6.3,1.5,9.3c1.5-1,3.3-1.4,5.2-1.3l0.5,1.4l-0.9,2.3l-4.3,4.7
	c0.3,6.6,1.3,13,2.8,19.1l-0.4,2.2c-1.9,2.1-3.9,2.1-5.8,0.2l-1.4-4.1l-1.6-14.4c-3,0.7-5.8,0.3-8.3-1.2c-1.6-1.4-2.3-3.1-2.1-5.1
	c-0.3-2.8,0.2-5.3,1.7-7.6l1.7-0.3l1.7,1.4c0,2.3,0.5,4.6,1.4,6.7c1.3,0.4,2.6,0.1,3.8-0.9l-0.2-13c-0.1-1.5,0.4-2.8,1.4-3.9
	L426.9,77z M460.6,83.3c4.1-0.3,8.3-0.3,12.6-0.2c3.1,0.9,5.9,2.4,8.4,4.4c1.7,2.1,2.7,4.5,2.9,7.1c-0.4,2.5-1.5,4.5-3.5,6
	c-8.4,4.7-17.3,6.7-27,5.9c-5.2-0.1-9.9-1.3-14.2-3.6c-1.6-1.4-2.2-3.2-1.9-5.4c0.6-2.6,1.8-4.8,3.7-6.7c2.4-2.4,5.4-4.2,8.8-5.5
	c1.8-0.4,3.6-0.3,5.3,0.3C457.3,84.8,458.9,84,460.6,83.3z M456.3,87.6c-4.7,1.5-8.6,4.1-11.6,7.8l-1.1,2.8l0.8,0.7l5.3,1.2
	c0.2-3.3,1-6.6,2.2-9.9l1.3-0.3l1.2,1c0.2,3.5,0.9,6.7,2,9.6l5.3-0.4l1-8.5l-0.2-2.4L458,89l-1.5-1.2L456.3,87.6z M459,56.3
	c3.7,0,7.2,0.7,10.5,2.1c3.3,3,5.1,6.7,5.4,10.9c-0.4,2.7-1.5,4.9-3.2,6.6c-2.9,2.4-6,4.3-9.3,5.6c-4.8,1.2-9.4,0.8-13.7-1.1
	c-3.6-2.3-4.9-5.5-4-9.6c1-3.7,2.9-7.2,5.6-10.3l3.4-2.6L459,56.3z M451.2,70.5l-0.8,0.8c-0.6,1.8-0.2,3.1,1.2,4
	c3.2,1.3,6.6,1.5,10.2,0.7c2.9-0.9,5.4-2.6,7.6-4.9l-0.1-1.1l-16.5,0.6L451.2,70.5z M468.5,110.1l1.8,1.2c1.2,1.5,1.7,3.3,1.5,5.2
	l-2.2,5.5c2.9,0.8,5.9,1.3,9.1,1.6c0.9,0.8,1.3,1.9,1.1,3.2l-1.4,1.6c-4.5,1.4-8.9,1.1-13.1-0.8c-1.8,1.9-3.8,3.5-5.9,4.8
	c-1.7,0.5-3.2,0.2-4.5-1.1l-0.2-2.4l2.5-2.4l2.8-3.3c-1.6-2.1-2.9-4.3-4-6.7c-0.9-0.1-1.6-0.3-2.3-0.7l-0.1-1.3
	c3.1-2.3,6.6-3.7,10.5-4.2L468.5,110.1z M460.9,61.4l-6.5,1.4l-1.3,2.3l13.8-0.8l0.9-0.5l-3.1-2.2l-2.8,0L460.9,61.4z M461.5,114.8
	l-0.2,0.6l2.6,2.9l0.9-0.5l1.8-3l-0.5-0.4L461.5,114.8z M467,89c0.5,3.3,0.7,6.6,0.5,9.9l0.5,0.9c3-0.4,6.1-1.4,9-2.8L479,95
	l-0.2-2.2l-1.2-1.4c-1.8-1.5-3.9-2.4-6.3-2.7L467,89z"/>
<g>
	<g>
		<path class="st5" d="M67.1,8.9c-0.2,1.4,1.3,3.8,2,4l-0.7,3.2c0.4,0.1,0.8,0.3,1.2,0.5c0,0,1-1.9,1.2-3.3c0,0,2.6,0.6,3.6-2
			c1-2.6-0.9-4.5-2.9-5.1C69.5,5.6,67.3,7.6,67.1,8.9z"/>
	</g>
	<g>
		<path class="st5" d="M37.6,16.2c-1.4,1.6-2,4.2,0.2,5.8c2.2,1.6,4.1-0.2,4.1-0.2c1,1.1,2.8,2.2,2.8,2.2l0.1,0
			c0.3-0.4,0.5-0.7,0.8-1.1l-0.1,0l-2.3-2.3c0.5-0.5,0.5-3.5-0.4-4.5C41.9,15.1,39,14.6,37.6,16.2z"/>
	</g>
	<g>
		<path class="st5" d="M8.8,113.4c-0.7,2.5,0.6,5,0.8,6.7c2.4-1.1,4.3-3.8,4.4-5.6c0.2-1.7-0.8-3.1-0.8-3.1c0.7-8,8.4-11.2,8.4-11.2
			c0.4-0.8,0.8-1.5,1.4-2.2c-10.8,0.7-11.9,13-11.9,13S9.2,111.7,8.8,113.4z"/>
	</g>
	<g>
		<path class="st6" d="M48.5,120.1c0,0-0.6,9.7,0.7,10.2c1.2,0.5,5.3,0,5.3,0l0.1,0c-0.3-4.1,0.4-13.3,0.4-13.3l-0.1-0.1
			C53.6,118.1,51.6,119.3,48.5,120.1z"/>
	</g>
	<g>
		<path class="st6" d="M29,118.6c0,0.8,0.3,7.3,0,11.2c0.8,0.2,4,0.8,4.6,0c0.6-0.8,0.8-9.3,0.8-9.3v0C32,120,30.3,119.3,29,118.6z"
			/>
	</g>
	<g>
		<path class="st7" d="M75.9,20.3c1.5,1.2,3,2.6,4.4,4.2c8.4-3,10.3-19,7.3-19.9C87.6,4.6,80.1,8,75.9,20.3z"/>
	</g>
	<g>
		<path class="st7" d="M23.2,23.4c-2.1,2.4,8,14.9,16.8,12.9l0.2,0c0.3-2.1,0.8-4.1,1.4-5.9l-0.1,0C31.3,22.3,23.2,23.4,23.2,23.4z"
			/>
	</g>
	<g>
		<path class="st8" d="M28.9,129.7c0.4-3.8,0.1-10.3,0-11.2c1.3,0.7,3,1.4,5.3,1.9c1.8,0.4,3.9,0.6,6.5,0.6c3.1,0,5.7-0.3,7.7-0.9
			c3.1-0.8,5.1-2,6.4-3.2l0.1,0.1c0,0-0.7,9.2-0.4,13.3c0.1,0.9,0.2,1.6,0.4,1.9c1,1.5,6.9,1.5,8.6,0c1.7-1.5,2-17.4,3.2-33
			c1.2-15.7,0.4-28.3,0.4-28.3c-5.4,0.9-9.8,0.2-13.4-1.9c0,0.3-1.1,14.4-3.5,17.1c-2.4,2.7-18.3,0.7-27.3,12
			c-0.5,0.6-1,1.4-1.4,2.2c-4.8,9.7-1.5,30.1-0.7,31.5c0.8,1.5,5.7,1.3,7.2,0.8C28.5,132.3,28.8,131.3,28.9,129.7z"/>
	</g>
	<g>
		<path class="st8" d="M23.2,23.4c0,0,8.1-1.1,18.3,7l0.1,0c0.4-1.1,0.9-2.2,1.4-3.2l-0.1,0C42.8,27.2,26.7,19.3,23.2,23.4z"/>
	</g>
	<g>
		<path class="st8" d="M40.1,36.3c-0.5,3.4-0.3,7.2,0.6,11.2c2.2,9.2,6,16.9,12.1,20.9c-4.6-4.6-6.4-11.1-4.2-17.7
			c2.2-6.6,16.7-15.5,29-12.6C89.8,40.9,89.1,54.1,89,54.5c2.6-7.8,0.3-16.9-5.1-25.2c-1.2-1.8-2.4-3.4-3.6-4.8
			c-1.4-1.6-2.9-3-4.4-4.2c-1-0.8-1.9-1.4-2.9-2c-1.1-0.7-2.2-1.2-3.3-1.7c-0.4-0.2-0.8-0.3-1.2-0.5C63,14.2,57.9,14.5,54.1,16
			c-2.6,1-5.8,3.4-8.5,7c-0.3,0.3-0.5,0.7-0.8,1.1c-0.7,1-1.3,2.1-1.9,3.2c-0.5,1-1,2.1-1.4,3.2C40.9,32.3,40.4,34.2,40.1,36.3z"/>
	</g>
	<g>
		<path class="st7" d="M53.7,68.9c3.6,2.1,8.1,2.8,13.4,1.9c2-0.4,4.2-1,6.5-1.8C82.2,65.7,87,60.5,89,54.5c0,0,0,0,0,0
			c0-0.4,0.8-13.6-11.4-16.4c-12.3-2.9-26.8,6.1-29,12.6c-2.2,6.6-0.4,13.1,4.2,17.7C53.1,68.6,53.4,68.7,53.7,68.9z"/>
	</g>
	<g>
		<path class="st8" d="M73,18.3c1,0.6,1.9,1.3,2.9,2C80.1,8,87.6,4.6,87.6,4.6C82.4,3.1,73,18.3,73,18.3z"/>
	</g>
	<g>
		<g>
			<path class="st9" d="M79.5,43.7c0.2,0.5,0.8,0.7,1.2,0.5c0.5-0.2,0.7-0.8,0.5-1.2c-0.2-0.5-0.8-0.7-1.2-0.5
				C79.6,42.7,79.3,43.2,79.5,43.7z"/>
		</g>
		<g>
			<path class="st9" d="M50.3,57.1c0.2,0.5,0.8,0.7,1.2,0.5c0.5-0.2,0.7-0.8,0.5-1.2c-0.2-0.5-0.8-0.7-1.2-0.5
				C50.4,56,50.1,56.6,50.3,57.1z"/>
		</g>
	</g>
	<g>
		<g>
			<path class="st9" d="M66,34.7c0.4,1,1.4,1.6,2.1,1.3c0.8-0.3,1.1-1.4,0.7-2.4c-0.4-1-1.3-1.6-2.1-1.3C66,32.6,65.6,33.7,66,34.7z
				"/>
		</g>
		<g>
			<path class="st9" d="M52.9,39.5c0.4,1,1.4,1.6,2.1,1.3c0.8-0.3,1.1-1.4,0.7-2.4c-0.4-1-1.4-1.6-2.1-1.3
				C52.9,37.4,52.5,38.5,52.9,39.5z"/>
		</g>
	</g>
	<g>
		<path class="st10" d="M41.5,30.5c0.4-1.1,0.9-2.2,1.4-3.2c0.6-1.1,1.2-2.2,1.9-3.2c0.3-0.4,0.5-0.7,0.8-1.1c2.2-2.9,4.7-5,6.9-6.2
			c2.8,2.7,5.4,5.1,4.4,9.9c-1,5-8.3,6.9-10.7,11.1c-1.4,2.5-1.7,4.1-5.1,4.7c-0.4,0.1-0.8,0.1-1.1,0.1c-0.2-2.2-0.1-4.2,0.1-6.2
			C40.4,34.2,40.9,32.3,41.5,30.5z"/>
	</g>
	<g>
		<path class="st10" d="M50.2,86c1.4-1.6,2.4-7.4,2.9-11.8c3.5,0.8,5.4,2.4,4.1,6.6c-0.9,2.7-3.2,6.8-6.4,6.6
			c-0.8,0-1.4-0.2-1.9-0.6C49.5,86.5,49.9,86.3,50.2,86z"/>
	</g>
	<g>
		<path class="st10" d="M45.3,87.5c0.2,5.3,3.1,12.1-4.1,14.1c-2.3,0.6-5.4,0.7-7.7,0.2c-0.9-0.2-1.6-0.6-2.5-0.7
			c-1-0.1-2.2,0.5-3.2,0.3c-1.9-0.5-3.1-2.6-3.6-4.8C30.5,89.8,39.6,88.6,45.3,87.5z"/>
	</g>
	<g>
		<path class="st10" d="M57,94.8c4.9,0.5,2.1,10.2-3,6.8c-3.1-2.1,1.1-8.7,3.4-6.8"/>
	</g>
	<g>
		<path class="st10" d="M31.3,106.1c0.7-0.4,1.6-0.8,2.1-0.3c0,1-0.1,2,0.2,3c-1,0.4-2.1,0.5-3.1,0.4C30.1,108,30.6,107,31.3,106.1z
			"/>
	</g>
	<g>
		<path class="st10" d="M61.5,82c1.8,1.5,0.4,4.4-1.9,3.8C56.4,85,59.7,82.3,61.5,82z"/>
	</g>
	<g>
		<path class="st10" d="M48.9,91.5c1-0.3,1.8-0.6,1.9,0.4c0.1,0.5,0,1.2,0,1.7C49.2,94.4,48.2,93.1,48.9,91.5z"/>
	</g>
	<g>
		<path class="st9" d="M66.1,65.5c-1.2,0-2.5-0.1-3.9-0.3c-0.3-0.1-0.6-0.4-0.5-0.7c0.1-0.3,0.4-0.6,0.7-0.5
			c12.9,2.1,17.4-7.2,17.4-7.3c0.1-0.3,0.5-0.4,0.8-0.3c0.3,0.1,0.4,0.5,0.3,0.8C80.9,57.2,76.9,65.5,66.1,65.5z"/>
	</g>
</g>
</svg>
